Coordinates
version=1
nRows=27
nColumns=12
inDegrees=yes

Units are S.I. units (second, meters, Newtons, ...)
Angles are in degrees

endheader
time	SC_y	SC_z	SC_x	AC_y	AC_z	AC_x	GH_y	GH_z	GH_yy	EL_x	PS_y
       0.0              -17.32          15.32          31.48          36.34         -15.59         -1.376          100.1          83.76         -70.67          73.81          147.0
   0.02354              -17.33          15.32          31.48          36.35         -15.59         -1.374          100.0          83.76         -70.67           73.8          147.0
   0.04708              -17.33          15.32          31.48          36.35         -15.59         -1.371          100.0          83.75         -70.68          73.79          147.0
   0.07062              -17.34          15.32          31.48          36.36         -15.58         -1.367          99.99          83.74         -70.68          73.78          147.0
   0.09416              -17.34          15.32          31.48          36.36         -15.58         -1.364          99.96          83.73         -70.69          73.77          147.0
    0.1177              -17.35          15.32          31.48          36.37         -15.57          -1.36          99.94          83.72          -70.7          73.76          147.0
    0.1412              -17.36          15.32          31.48          36.38         -15.57         -1.356          99.91          83.71          -70.7          73.75          147.0
    0.1648              -17.36          15.33          31.48          36.38         -15.56         -1.352          99.88          83.69         -70.71          73.73          147.0
    0.1883              -17.37          15.33          31.48          36.39         -15.56         -1.348          99.85          83.68         -70.72          73.72          147.0
    0.2119              -17.38          15.33          31.48           36.4         -15.55         -1.343          99.82          83.67         -70.73           73.7          147.0
    0.2354              -17.39          15.33          31.48           36.4         -15.55         -1.338          99.78          83.65         -70.73          73.68          147.0
    0.2589               -17.4          15.34          31.48          36.41         -15.54         -1.332          99.74          83.63         -70.74          73.66          147.0
    0.2825              -17.41          15.34          31.48          36.42         -15.53         -1.326           99.7          83.62         -70.75          73.64          147.0
     0.306              -17.42          15.34          31.48          36.43         -15.52          -1.32          99.65           83.6         -70.77          73.62          147.0
    0.3296              -17.43          15.34          31.48          36.44         -15.51         -1.313          99.61          83.58         -70.78           73.6          147.0
    0.3531              -17.45          15.35          31.48          36.46          -15.5         -1.305          99.55          83.56         -70.79          73.57          147.0
    0.3766              -17.46          15.35          31.48          36.47         -15.49         -1.297          99.49          83.53         -70.81          73.54          147.0
    0.4002              -17.48          15.36          31.48          36.48         -15.48         -1.288          99.43          83.51         -70.82          73.51          147.0
    0.4237               -17.5          15.36          31.48           36.5         -15.47         -1.278          99.36          83.48         -70.84          73.48          147.0
    0.4473              -17.51          15.36          31.48          36.52         -15.46         -1.267          99.29          83.45         -70.86          73.44          147.0
    0.4708              -17.54          15.37          31.48          36.53         -15.44         -1.255          99.21          83.41         -70.88           73.4          147.0
    0.4944              -17.56          15.38          31.48          36.55         -15.43         -1.242          99.12          83.37          -70.9          73.36          147.1
    0.5179              -17.58          15.38          31.48          36.58         -15.41         -1.228          99.02          83.33         -70.93          73.31          147.1
    0.5414              -17.61          15.39          31.48           36.6         -15.39         -1.212           98.9          83.29         -70.95          73.25          147.1
     0.565              -17.64           15.4          31.49          36.63         -15.37         -1.194          98.78          83.23         -70.98          73.19          147.1
    0.5885              -17.68          15.41          31.49          36.66         -15.34         -1.174          98.64          83.18         -71.02          73.13          147.1
    0.6121              -17.72          15.42          31.49           36.7         -15.31         -1.152          98.49          83.11         -71.06          73.05          147.1
